<svg width="170" height="41" viewBox="0 0 170 41" fill="none" xmlns="http://www.w3.org/2000/svg">
<path d="M46.9005 0V35.8492H37.4126V6.14558L28.7872 35.8492H18.1672L9.48791 5.92995V35.8492H0V0H16.3343L23.612 26.0379L30.9435 0H46.9005Z" fill="white"/>
<path d="M53.2012 35.8513H43.9941L55.3926 0.00170898H64.8457L53.2012 35.8513Z" fill="white"/>
<path d="M70.3271 0.00012207C78.5747 0.000284862 81.8631 5.33686 81.8633 11.8595C81.8633 18.8136 78.5749 24.1513 70.3271 24.1515H59.8682V35.8497H54.4199L60.6006 16.8195H67.1465C70.5963 16.8193 71.9442 14.7172 71.9443 11.9142C71.9443 9.16485 70.6501 7.27747 67.2539 7.27747H63.7002L66.0635 0.0020752H62.5332V0.00012207H70.3271Z" fill="white"/>
<path d="M68.016 26.5941H68.3333V27.9866H67.9631C65.3545 27.8985 64.7905 29.802 64.7905 32.2873V35.5304H63.3804V26.7175H64.7905V29.097C65.3193 27.5459 66.3416 26.5941 68.016 26.5941ZM73.5776 34.7372C75.3049 34.7372 76.0981 33.9265 76.3625 32.816H77.6492C77.4729 34.1556 76.4506 35.8124 73.5247 35.8124C70.4931 35.8124 69.1535 33.7678 69.1535 31.1063C69.1535 28.4801 70.5989 26.4355 73.5247 26.4355C76.1686 26.4355 77.6668 28.251 77.6668 30.8243C77.6668 31.0535 77.6668 31.2297 77.6315 31.4412H70.546C70.6517 33.856 71.815 34.7372 73.5776 34.7372ZM73.5424 27.5107C71.8679 27.5107 70.7751 28.3038 70.5812 30.3837H76.292C76.2215 28.3567 75.1815 27.5107 73.5424 27.5107ZM82.2042 35.7595C80.5121 35.7595 79.2959 34.8782 79.2959 33.2038C79.2959 31.7761 80.0715 30.8772 81.975 30.5599L84.2135 30.1898C85.1477 30.0312 85.5354 29.7844 85.5354 29.1146C85.5354 28.2157 85.0772 27.5283 83.3675 27.5283C81.6401 27.5283 80.988 28.3391 80.8999 29.4848H79.5074C79.5603 27.6164 80.8822 26.4179 83.3146 26.4179C85.7293 26.4179 86.8221 27.5283 86.8221 29.1146V33.3448C86.8221 33.9793 86.8397 34.6667 86.9279 35.5304H85.6412C85.5707 34.7725 85.5178 34.1203 85.5178 33.4682C85.1829 34.5257 84.2488 35.7595 82.2042 35.7595ZM82.4862 34.6491C84.566 34.6491 85.5354 33.0275 85.5354 31.3531V30.5952C85.0948 30.9125 84.6189 31.0535 83.9491 31.1945L82.4862 31.4941C81.2876 31.7409 80.7236 32.1991 80.7236 33.1509C80.7236 34.1556 81.4463 34.6491 82.4862 34.6491ZM88.621 31.124C88.621 28.4272 90.1721 26.4355 93.0275 26.4355C95.6713 26.4355 96.9933 27.8985 97.1343 29.943H95.8123C95.6008 28.4977 94.7195 27.5812 93.0803 27.5812C91.212 27.5812 90.0487 28.5859 90.0487 31.124C90.0487 33.6797 91.1768 34.6667 93.0275 34.6667C94.8077 34.6667 95.7242 33.6621 95.9005 32.1639H97.24C97.1343 34.1908 95.7066 35.8124 93.0275 35.8124C90.1369 35.8124 88.621 33.8207 88.621 31.124ZM103.895 35.5304H101.815C100.123 35.5304 99.682 34.8782 99.682 33.4682V27.8279H98.0076V27.0348L99.8054 26.5941L100.334 24.7611H101.092V26.7175H104V27.8279H101.092V34.3847H103.895V35.5304ZM109.398 35.8124C106.419 35.8124 104.956 33.7678 104.956 31.1063C104.956 28.4801 106.419 26.4355 109.398 26.4355C112.359 26.4355 113.822 28.4977 113.822 31.1063C113.822 33.7502 112.359 35.8124 109.398 35.8124ZM106.384 31.124C106.384 33.5916 107.406 34.6667 109.398 34.6667C111.389 34.6667 112.394 33.5916 112.394 31.124C112.394 28.6387 111.389 27.5812 109.398 27.5812C107.406 27.5812 106.384 28.6387 106.384 31.124ZM120.308 26.5941H120.625V27.9866H120.255C117.646 27.8985 117.082 29.802 117.082 32.2873V35.5304H115.672V26.7175H117.082V29.097C117.611 27.5459 118.634 26.5941 120.308 26.5941ZM121.424 32.5869H122.728C122.834 33.7854 123.504 34.7372 125.531 34.7372C127.082 34.7372 127.699 34.1908 127.699 33.2038C127.699 32.3578 127.205 31.8995 126.095 31.7409L124.05 31.4412C122.517 31.2297 121.653 30.4189 121.653 29.0617C121.653 27.4226 122.958 26.4179 125.178 26.4179C127.487 26.4179 128.809 27.5812 128.915 29.238H127.523C127.435 28.3215 126.765 27.4931 125.143 27.4931C123.645 27.4931 123.028 28.0923 123.028 28.956C123.028 29.5729 123.345 30.1017 124.456 30.2603L126.324 30.5247C128.351 30.8243 129.091 31.688 129.091 33.1333C129.091 34.9311 127.84 35.8124 125.496 35.8124C122.623 35.8124 121.459 34.4376 121.424 32.5869ZM132.201 35.5304H130.368V33.9793H132.201V35.5304ZM133.391 31.124C133.391 28.4272 134.942 26.4355 137.798 26.4355C140.441 26.4355 141.763 27.8985 141.904 29.943H140.582C140.371 28.4977 139.49 27.5812 137.85 27.5812C135.982 27.5812 134.819 28.5859 134.819 31.124C134.819 33.6797 135.947 34.6667 137.798 34.6667C139.578 34.6667 140.494 33.6621 140.671 32.1639H142.01C141.904 34.1908 140.477 35.8124 137.798 35.8124C134.907 35.8124 133.391 33.8207 133.391 31.124ZM147.833 35.8124C144.855 35.8124 143.392 33.7678 143.392 31.1063C143.392 28.4801 144.855 26.4355 147.833 26.4355C150.794 26.4355 152.257 28.4977 152.257 31.1063C152.257 33.7502 150.794 35.8124 147.833 35.8124ZM144.819 31.124C144.819 33.5916 145.842 34.6667 147.833 34.6667C149.825 34.6667 150.83 33.5916 150.83 31.124C150.83 28.6387 149.825 27.5812 147.833 27.5812C145.842 27.5812 144.819 28.6387 144.819 31.124ZM164.913 26.4355C166.922 26.4355 167.892 27.5988 167.892 29.8549V35.5304H166.481V30.0135C166.481 28.2333 165.759 27.6164 164.472 27.6164C162.551 27.6164 161.687 29.1323 161.687 32.1639V35.5304H160.312V30.0135C160.312 28.2333 159.572 27.6164 158.286 27.6164C156.4 27.6164 155.518 29.1323 155.518 32.1639V35.5304H154.108V26.7175H155.518V28.9031C156.047 27.2992 157.069 26.4355 158.726 26.4355C160.453 26.4355 161.405 27.2815 161.617 28.9736C162.128 27.3344 163.168 26.4355 164.913 26.4355Z" fill="white"/>
</svg>
