<svg width="38" height="38" viewBox="0 0 38 38" fill="none" xmlns="http://www.w3.org/2000/svg">
<path d="M19.0006 5.18164C15.2479 5.18164 14.7769 5.19805 13.303 5.26513C11.832 5.33249 10.8279 5.56538 9.94934 5.9071C9.04054 6.26003 8.26962 6.73216 7.50159 7.5005C6.73297 8.26856 6.26087 9.0395 5.90679 9.94805C5.56422 10.8269 5.33105 11.8314 5.26483 13.3018C5.19891 14.7758 5.18164 15.247 5.18164 18.9998C5.18164 22.7526 5.19834 23.2221 5.26512 24.6961C5.33277 26.1671 5.56566 27.1713 5.90707 28.0499C6.26029 28.9587 6.7324 29.7296 7.50072 30.4977C8.26847 31.2663 9.03939 31.7396 9.94762 32.0926C10.8268 32.4343 11.8312 32.6672 13.3019 32.7345C14.7758 32.8016 15.2464 32.818 18.9988 32.818C22.7518 32.818 23.2213 32.8016 24.6952 32.7345C26.1662 32.6672 27.1715 32.4343 28.0506 32.0926C28.9591 31.7396 29.7289 31.2663 30.4966 30.4977C31.2653 29.7296 31.7374 28.9587 32.0914 28.0502C32.4311 27.1713 32.6643 26.1669 32.7334 24.6964C32.7996 23.2224 32.8169 22.7526 32.8169 18.9998C32.8169 15.247 32.7996 14.7761 32.7334 13.3021C32.6643 11.8311 32.4311 10.8269 32.0914 9.94834C31.7374 9.0395 31.2653 8.26856 30.4966 7.5005C29.728 6.73187 28.9594 6.25975 28.0498 5.9071C27.1689 5.56538 26.1642 5.33249 24.6932 5.26513C23.2193 5.19805 22.7501 5.18164 18.9962 5.18164H19.0006ZM17.761 7.67179C18.1289 7.67122 18.5394 7.67179 19.0006 7.67179C22.6899 7.67179 23.1272 7.68503 24.5841 7.75125C25.9313 7.81285 26.6625 8.03797 27.1496 8.22711C27.7944 8.47757 28.2541 8.77696 28.7375 9.26059C29.2211 9.74423 29.5205 10.2048 29.7715 10.8497C29.9606 11.3362 30.186 12.0674 30.2473 13.4147C30.3136 14.8714 30.328 15.3089 30.328 18.9967C30.328 22.6844 30.3136 23.122 30.2473 24.5786C30.1857 25.9259 29.9606 26.6571 29.7715 27.1436C29.5211 27.7885 29.2211 28.2476 28.7375 28.731C28.2539 29.2146 27.7947 29.514 27.1496 29.7645C26.6631 29.9545 25.9313 30.179 24.5841 30.2406C23.1275 30.3068 22.6899 30.3212 19.0006 30.3212C15.3109 30.3212 14.8736 30.3068 13.417 30.2406C12.0698 30.1784 11.3386 29.9533 10.8512 29.7642C10.2064 29.5137 9.74582 29.2143 9.2622 28.7307C8.77858 28.2471 8.47919 27.7876 8.22817 27.1425C8.03904 26.656 7.81364 25.9247 7.75232 24.5775C7.68611 23.1208 7.67287 22.6832 7.67287 18.9932C7.67287 15.3032 7.68611 14.8679 7.75232 13.4112C7.81392 12.064 8.03904 11.3327 8.22817 10.8457C8.47862 10.2008 8.77858 9.7402 9.2622 9.25656C9.74582 8.77293 10.2064 8.47353 10.8512 8.2225C11.3383 8.0325 12.0698 7.80796 13.417 7.74607C14.6917 7.68849 15.1857 7.67122 17.761 7.66834V7.67179ZM26.3764 9.96619C25.4609 9.96619 24.7182 10.708 24.7182 11.6238C24.7182 12.5392 25.4609 13.282 26.3764 13.282C27.2918 13.282 28.0345 12.5392 28.0345 11.6238C28.0345 10.7083 27.2918 9.96561 26.3764 9.96561V9.96619ZM19.0006 11.9036C15.0818 11.9036 11.9046 15.0809 11.9046 18.9998C11.9046 22.9187 15.0818 26.0946 19.0006 26.0946C22.9193 26.0946 26.0954 22.9187 26.0954 18.9998C26.0954 15.0809 22.919 11.9036 19.0003 11.9036H19.0006ZM19.0006 14.3938C21.5442 14.3938 23.6065 16.4558 23.6065 18.9998C23.6065 21.5435 21.5442 23.6059 19.0006 23.6059C16.4566 23.6059 14.3946 21.5435 14.3946 18.9998C14.3946 16.4558 16.4566 14.3938 19.0006 14.3938Z" fill="url(#paint0_radial_395_957)"/>
<path d="M19.0006 5.18164C15.2479 5.18164 14.7769 5.19805 13.303 5.26513C11.832 5.33249 10.8279 5.56538 9.94935 5.9071C9.04054 6.26003 8.26962 6.73216 7.50159 7.5005C6.73297 8.26856 6.26087 9.0395 5.90679 9.94805C5.56422 10.8269 5.33105 11.8314 5.26483 13.3018C5.19891 14.7758 5.18164 15.247 5.18164 18.9998C5.18164 22.7526 5.19834 23.2221 5.26512 24.6961C5.33277 26.1671 5.56566 27.1713 5.90707 28.0499C6.26029 28.9587 6.7324 29.7296 7.50072 30.4977C8.26847 31.2663 9.03939 31.7396 9.94762 32.0926C10.8268 32.4343 11.8312 32.6672 13.3019 32.7345C14.7758 32.8016 15.2464 32.818 18.9988 32.818C22.7518 32.818 23.2213 32.8016 24.6952 32.7345C26.1662 32.6672 27.1715 32.4343 28.0506 32.0926C28.9591 31.7396 29.7289 31.2663 30.4966 30.4977C31.2653 29.7296 31.7374 28.9587 32.0914 28.0502C32.4311 27.1713 32.6643 26.1669 32.7334 24.6964C32.7996 23.2224 32.8169 22.7526 32.8169 18.9998C32.8169 15.247 32.7996 14.7761 32.7334 13.3021C32.6643 11.8311 32.4311 10.8269 32.0914 9.94834C31.7374 9.0395 31.2653 8.26856 30.4966 7.5005C29.728 6.73187 28.9594 6.25975 28.0498 5.9071C27.1689 5.56538 26.1642 5.33249 24.6932 5.26513C23.2193 5.19805 22.7501 5.18164 18.9962 5.18164H19.0006ZM17.761 7.67179C18.1289 7.67122 18.5394 7.67179 19.0006 7.67179C22.6899 7.67179 23.1272 7.68503 24.5841 7.75125C25.9313 7.81285 26.6625 8.03797 27.1496 8.22711C27.7944 8.47757 28.2541 8.77696 28.7375 9.26059C29.2211 9.74423 29.5205 10.2048 29.7715 10.8497C29.9606 11.3362 30.186 12.0674 30.2474 13.4147C30.3136 14.8714 30.328 15.3089 30.328 18.9967C30.328 22.6844 30.3136 23.122 30.2474 24.5786C30.1857 25.9259 29.9606 26.6571 29.7715 27.1436C29.5211 27.7885 29.2211 28.2476 28.7375 28.731C28.2539 29.2146 27.7947 29.514 27.1496 29.7645C26.6631 29.9545 25.9313 30.179 24.5841 30.2406C23.1275 30.3068 22.6899 30.3212 19.0006 30.3212C15.3109 30.3212 14.8737 30.3068 13.417 30.2406C12.0698 30.1784 11.3386 29.9533 10.8512 29.7642C10.2064 29.5137 9.74582 29.2143 9.2622 28.7307C8.77858 28.2471 8.47919 27.7876 8.22817 27.1425C8.03904 26.656 7.81364 25.9247 7.75232 24.5775C7.68611 23.1208 7.67287 22.6832 7.67287 18.9932C7.67287 15.3032 7.68611 14.8679 7.75232 13.4112C7.81392 12.064 8.03904 11.3327 8.22817 10.8457C8.47862 10.2008 8.77858 9.7402 9.2622 9.25656C9.74582 8.77293 10.2064 8.47353 10.8512 8.2225C11.3383 8.0325 12.0698 7.80796 13.417 7.74607C14.6917 7.68849 15.1857 7.67122 17.761 7.66834V7.67179ZM26.3764 9.96619C25.4609 9.96619 24.7182 10.708 24.7182 11.6238C24.7182 12.5392 25.4609 13.282 26.3764 13.282C27.2918 13.282 28.0345 12.5392 28.0345 11.6238C28.0345 10.7083 27.2918 9.96561 26.3764 9.96561V9.96619ZM19.0006 11.9036C15.0818 11.9036 11.9046 15.0809 11.9046 18.9998C11.9046 22.9187 15.0818 26.0946 19.0006 26.0946C22.9193 26.0946 26.0954 22.9187 26.0954 18.9998C26.0954 15.0809 22.919 11.9036 19.0003 11.9036H19.0006ZM19.0006 14.3938C21.5442 14.3938 23.6065 16.4558 23.6065 18.9998C23.6065 21.5435 21.5442 23.6059 19.0006 23.6059C16.4566 23.6059 14.3946 21.5435 14.3946 18.9998C14.3946 16.4558 16.4566 14.3938 19.0006 14.3938Z" fill="url(#paint1_radial_395_957)"/>
<defs>
<radialGradient id="paint0_radial_395_957" cx="0" cy="0" r="1" gradientUnits="userSpaceOnUse" gradientTransform="translate(12.5223 34.9466) rotate(-90) scale(27.3897 25.4735)">
<stop stop-color="#FFDD55"/>
<stop offset="0.1" stop-color="#FFDD55"/>
<stop offset="0.5" stop-color="#FF543E"/>
<stop offset="1" stop-color="#C837AB"/>
</radialGradient>
<radialGradient id="paint1_radial_395_957" cx="0" cy="0" r="1" gradientTransform="matrix(2.40298 12.0051 -49.4826 9.91096 0.552592 7.17252)" gradientUnits="userSpaceOnUse">
<stop stop-color="#3771C8"/>
<stop offset="0.128" stop-color="#3771C8"/>
<stop offset="1" stop-color="#6600FF" stop-opacity="0"/>
</radialGradient>
</defs>
</svg>
